<svg width="16" height="16" viewBox="0 0 16 16" fill="none" xmlns="http://www.w3.org/2000/svg">
  <path
    d="M8.00001 4.66665C7.63334 4.66665 7.33334 4.96665 7.33334 5.33331V7.33331H5.33334C4.96668 7.33331 4.66668 7.63331 4.66668 7.99998C4.66668 8.36665 4.96668 8.66665 5.33334 8.66665H7.33334V10.6666C7.33334 11.0333 7.63334 11.3333 8.00001 11.3333C8.36668 11.3333 8.66668 11.0333 8.66668 10.6666V8.66665H10.6667C11.0333 8.66665 11.3333 8.36665 11.3333 7.99998C11.3333 7.63331 11.0333 7.33331 10.6667 7.33331H8.66668V5.33331C8.66668 4.96665 8.36668 4.66665 8.00001 4.66665ZM8.00001 1.33331C4.32001 1.33331 1.33334 4.31998 1.33334 7.99998C1.33334 11.68 4.32001 14.6666 8.00001 14.6666C11.68 14.6666 14.6667 11.68 14.6667 7.99998C14.6667 4.31998 11.68 1.33331 8.00001 1.33331ZM8.00001 13.3333C5.06001 13.3333 2.66668 10.94 2.66668 7.99998C2.66668 5.05998 5.06001 2.66665 8.00001 2.66665C10.94 2.66665 13.3333 5.05998 13.3333 7.99998C13.3333 10.94 10.94 13.3333 8.00001 13.3333Z"
    fill="#9873FF"/>
</svg>
