<svg width="0" height="0" class="hidden">
  <symbol fill="none" xmlns="http://www.w3.org/2000/svg" viewBox="0 0 16 16" id="fb">
    <path
      d="M8 0C3.6 0 0 3.606 0 8.048c0 4.016 2.928 7.35 6.752 7.952v-5.623H4.72V8.048h2.032V6.273c0-2.016 1.192-3.124 3.024-3.124.872 0 1.784.152 1.784.152v1.984h-1.008c-.992 0-1.304.619-1.304 1.253v1.51h2.224l-.36 2.33H9.248V16a7.992 7.992 0 004.84-2.723A8.051 8.051 0 0016 8.048C16 3.606 12.4 0 8 0z"
      fill="#9873FF"></path>
  </symbol>
  <symbol fill="none" xmlns="http://www.w3.org/2000/svg" viewBox="0 0 16 16" id="mail">
    <path fill-rule="evenodd" clip-rule="evenodd"
          d="M8 16A8 8 0 108 0a8 8 0 000 16zM4 5.75c0-.412.36-.75.8-.75h6.4c.44 0 .8.338.8.75v4.5c0 .412-.36.75-.8.75H4.8c-.44 0-.8-.338-.8-.75v-4.5zm4.424 2.377l2.616-1.533c.1-.06.16-.162.16-.27 0-.252-.292-.401-.52-.27L8 7.625 5.32 6.054c-.228-.131-.52.018-.52.27 0 .109.06.21.16.27l2.616 1.533c.26.154.588.154.848 0z"
          fill="#9873FF"></path>
  </symbol>
  <symbol fill="none" xmlns="http://www.w3.org/2000/svg" viewBox="0 0 16 16" id="other">
    <path fill-rule="evenodd" clip-rule="evenodd"
          d="M8 16A8 8 0 108 0a8 8 0 000 16zM3 8c0-2.76 2.24-5 5-5s5 2.24 5 5-2.24 5-5 5-5-2.24-5-5zm6.5-2c0-.83-.67-1.5-1.5-1.5S6.5 5.17 6.5 6 7.17 7.5 8 7.5 9.5 6.83 9.5 6zM5 9.99a3.6 3.6 0 006 0c-.015-.995-2.005-1.54-3-1.54-1 0-2.985.545-3 1.54z"
          fill="#9873FF"></path>
  </symbol>
  <symbol fill="none" xmlns="http://www.w3.org/2000/svg" viewBox="0 0 16 16" id="phone">
    <g>
      <circle cx="8" cy="8" r="8" fill="#9873FF"></circle>
      <path
        d="M11.56 9.502a5.085 5.085 0 01-1.569-.249.434.434 0 00-.449.107l-.698.876C7.587 9.636 6.41 8.502 5.782 7.2l.867-.738a.454.454 0 00.107-.453 4.957 4.957 0 01-.25-1.569c0-.24-.2-.44-.44-.44H4.53c-.241 0-.53.107-.53.44C4 8.569 7.436 12 11.56 12c.316 0 .44-.28.44-.524V9.942c0-.24-.2-.44-.44-.44z"
        fill="#fff"></path>
    </g>
  </symbol>
  <symbol fill="none" xmlns="http://www.w3.org/2000/svg" viewBox="0 0 16 16" id="vk">
    <path
      d="M8 0a8 8 0 100 16A8 8 0 008 0zm4.058 8.865c.373.364.767.707 1.102 1.109.148.178.288.362.395.568.152.295.014.618-.25.636h-1.639c-.423.035-.76-.136-1.044-.426-.226-.23-.437-.477-.655-.715a1.533 1.533 0 00-.295-.263c-.224-.145-.418-.1-.546.133-.13.238-.16.5-.172.765-.018.387-.135.488-.523.506-.828.038-1.614-.087-2.345-.505-.645-.368-1.143-.888-1.578-1.477C3.66 8.048 3.013 6.788 2.43 5.493c-.13-.292-.035-.448.287-.455a45.59 45.59 0 011.605 0c.218.003.362.128.445.333.29.712.644 1.388 1.088 2.016.118.167.239.334.41.452.19.13.336.087.425-.125.057-.135.082-.279.094-.423a6.317 6.317 0 00-.026-1.482c-.045-.308-.219-.507-.526-.565-.156-.03-.134-.088-.057-.177.132-.155.255-.25.503-.25H8.53c.291.057.357.188.396.482l.002 2.058c-.003.113.057.45.261.525.164.054.272-.077.37-.18.444-.472.76-1.028 1.044-1.604.125-.254.233-.517.338-.78.077-.194.199-.29.418-.287l1.783.002c.053 0 .106 0 .158.01.3.051.383.18.29.474-.146.46-.43.844-.708 1.229-.298.411-.616.809-.91 1.222-.272.379-.25.569.086.897z"
      fill="#9873FF"></path>
  </symbol>
</svg>
